<?xml version="1.0" encoding="utf-8" standalone="no"?><!DOCTYPE svg PUBLIC "-//W3C//DTD SVG 20010904//EN" "http://www.w3.org/TR/2001/REC-SVG-20010904/DTD/svg10.dtd"><svg xmlns="http://www.w3.org/2000/svg" width="435" height="450" xmlns:xlink="http://www.w3.org/1999/xlink"><source><![CDATA[# This is a sequence diagram for the dkim section
# I used https://bramp.github.io/js-sequence-diagrams/
# to render it to svg and then save it in images folder

participant Alice as Ua
participant Attacker as At
participant Bob as Ub
participant Claire as Uc

Ua --> At: (1) a
At --> Ub: (2) a'
Ub --> At: (3) b(a')
At --> Ua: (4) b'(a)
Ua -> Uc: (5) a
Uc -> Ua: (6) c(a)
Ub -> Uc: (7) b
Uc -> Ub: (8) c(b)
]]></source><desc></desc><defs><marker viewBox="0 0 5 5" markerWidth="5" markerHeight="5" orient="auto" refX="5" refY="2.5" id="markerArrowBlock"><path d="M 0 0 L 5 2.5 L 0 5 z"></path></marker><marker viewBox="0 0 9.6 16" markerWidth="4" markerHeight="16" orient="auto" refX="9.6" refY="8" id="markerArrowOpen"><path d="M 9.6,8 1.92,16 0,13.7 5.76,8 0,2.286 1.92,0 9.6,8 z"></path></marker></defs><g class="title"></g><g class="actor"><rect x="10" y="20" width="70" height="39" style="stroke-width: 2;" stroke="#000000" fill="#ffffff"></rect><text x="20" y="45" style="font-size: 16px; font-family: Andale Mono, monospace;"><tspan x="20">Alice</tspan></text></g><g class="actor"><rect x="10" y="391" width="70" height="39" style="stroke-width: 2;" stroke="#000000" fill="#ffffff"></rect><text x="20" y="416" style="font-size: 16px; font-family: Andale Mono, monospace;"><tspan x="20">Alice</tspan></text></g><line x1="45" x2="45" y1="59" y2="391" style="stroke-width: 2;" stroke="#000000" fill="none"></line><g class="actor"><rect x="105" y="20" width="100" height="39" style="stroke-width: 2;" stroke="#000000" fill="#ffffff"></rect><text x="115" y="45" style="font-size: 16px; font-family: Andale Mono, monospace;"><tspan x="115">Attacker</tspan></text></g><g class="actor"><rect x="105" y="391" width="100" height="39" style="stroke-width: 2;" stroke="#000000" fill="#ffffff"></rect><text x="115" y="416" style="font-size: 16px; font-family: Andale Mono, monospace;"><tspan x="115">Attacker</tspan></text></g><line x1="155" x2="155" y1="59" y2="391" style="stroke-width: 2;" stroke="#000000" fill="none"></line><g class="actor"><rect x="240" y="20" width="50" height="39" style="stroke-width: 2;" stroke="#000000" fill="#ffffff"></rect><text x="250" y="45" style="font-size: 16px; font-family: Andale Mono, monospace;"><tspan x="250">Bob</tspan></text></g><g class="actor"><rect x="240" y="391" width="50" height="39" style="stroke-width: 2;" stroke="#000000" fill="#ffffff"></rect><text x="250" y="416" style="font-size: 16px; font-family: Andale Mono, monospace;"><tspan x="250">Bob</tspan></text></g><line x1="265" x2="265" y1="59" y2="391" style="stroke-width: 2;" stroke="#000000" fill="none"></line><g class="actor"><rect x="325" y="20" width="80" height="39" style="stroke-width: 2;" stroke="#000000" fill="#ffffff"></rect><text x="335" y="45" style="font-size: 16px; font-family: Andale Mono, monospace;"><tspan x="335">Claire</tspan></text></g><g class="actor"><rect x="325" y="391" width="80" height="39" style="stroke-width: 2;" stroke="#000000" fill="#ffffff"></rect><text x="335" y="416" style="font-size: 16px; font-family: Andale Mono, monospace;"><tspan x="335">Claire</tspan></text></g><line x1="365" x2="365" y1="59" y2="391" style="stroke-width: 2;" stroke="#000000" fill="none"></line><g class="signal"><text x="75" y="89.5" style="font-size: 16px; font-family: Andale Mono, monospace;"><tspan x="75">(1) a</tspan></text><line x1="45" x2="155" y1="98" y2="98" style="stroke-width: 2; stroke-dasharray: 6, 2; marker-end: url(&quot;#markerArrowBlock&quot;);" stroke="#000000" fill="none"></line></g><g class="signal"><text x="180" y="128.5" style="font-size: 16px; font-family: Andale Mono, monospace;"><tspan x="180">(2) a'</tspan></text><line x1="155" x2="265" y1="137" y2="137" style="stroke-width: 2; stroke-dasharray: 6, 2; marker-end: url(&quot;#markerArrowBlock&quot;);" stroke="#000000" fill="none"></line></g><g class="signal"><text x="165" y="167.5" style="font-size: 16px; font-family: Andale Mono, monospace;"><tspan x="165">(3) b(a')</tspan></text><line x1="265" x2="155" y1="176" y2="176" style="stroke-width: 2; stroke-dasharray: 6, 2; marker-end: url(&quot;#markerArrowBlock&quot;);" stroke="#000000" fill="none"></line></g><g class="signal"><text x="55" y="206.5" style="font-size: 16px; font-family: Andale Mono, monospace;"><tspan x="55">(4) b'(a)</tspan></text><line x1="155" x2="45" y1="215" y2="215" style="stroke-width: 2; stroke-dasharray: 6, 2; marker-end: url(&quot;#markerArrowBlock&quot;);" stroke="#000000" fill="none"></line></g><g class="signal"><text x="180" y="245.5" style="font-size: 16px; font-family: Andale Mono, monospace;"><tspan x="180">(5) a</tspan></text><line x1="45" x2="365" y1="254" y2="254" style="stroke-width: 2; marker-end: url(&quot;#markerArrowBlock&quot;);" stroke="#000000" fill="none"></line></g><g class="signal"><text x="165" y="284.5" style="font-size: 16px; font-family: Andale Mono, monospace;"><tspan x="165">(6) c(a)</tspan></text><line x1="365" x2="45" y1="293" y2="293" style="stroke-width: 2; marker-end: url(&quot;#markerArrowBlock&quot;);" stroke="#000000" fill="none"></line></g><g class="signal"><text x="290" y="323.5" style="font-size: 16px; font-family: Andale Mono, monospace;"><tspan x="290">(7) b</tspan></text><line x1="265" x2="365" y1="332" y2="332" style="stroke-width: 2; marker-end: url(&quot;#markerArrowBlock&quot;);" stroke="#000000" fill="none"></line></g><g class="signal"><text x="275" y="362.5" style="font-size: 16px; font-family: Andale Mono, monospace;"><tspan x="275">(8) c(b)</tspan></text><line x1="365" x2="265" y1="371" y2="371" style="stroke-width: 2; marker-end: url(&quot;#markerArrowBlock&quot;);" stroke="#000000" fill="none"></line></g></svg>